<?xml version="1.0" encoding="utf-8" standalone="no"?>
<!DOCTYPE svg PUBLIC "-//W3C//DTD SVG 1.1//EN"
  "http://www.w3.org/Graphics/SVG/1.1/DTD/svg11.dtd">
<svg xmlns:xlink="http://www.w3.org/1999/xlink" width="645.12pt" height="432.909844pt" viewBox="0 0 645.12 432.909844" xmlns="http://www.w3.org/2000/svg" version="1.1">
 <metadata>
  <rdf:RDF xmlns:dc="http://purl.org/dc/elements/1.1/" xmlns:cc="http://creativecommons.org/ns#" xmlns:rdf="http://www.w3.org/1999/02/22-rdf-syntax-ns#">
   <cc:Work>
    <dc:type rdf:resource="http://purl.org/dc/dcmitype/StillImage"/>
    <dc:date>2025-08-19T14:56:52.250021</dc:date>
    <dc:format>image/svg+xml</dc:format>
    <dc:creator>
     <cc:Agent>
      <dc:title>Matplotlib v3.10.5, https://matplotlib.org/</dc:title>
     </cc:Agent>
    </dc:creator>
   </cc:Work>
  </rdf:RDF>
 </metadata>
 <defs>
  <style type="text/css">*{stroke-linejoin: round; stroke-linecap: butt}</style>
 </defs>
 <g id="figure_1">
  <g id="patch_1">
   <path d="M -0 432.909844 
L 645.12 432.909844 
L 645.12 -0 
L -0 -0 
z
" style="fill: #ffffff"/>
  </g>
  <g id="axes_1">
   <g id="patch_2">
    <path d="M 38.99 373.238125 
L 637.92 373.238125 
L 637.92 28.318125 
L 38.99 28.318125 
z
" style="fill: #ffffff"/>
   </g>
   <g id="patch_3">
    <path d="M 66.214091 373.238125 
L 156.961061 373.238125 
L 156.961061 304.254125 
L 66.214091 304.254125 
z
" clip-path="url(#p7cfdbfccfe)" style="fill: #1f77b4"/>
   </g>
   <g id="patch_4">
    <path d="M 179.647803 373.238125 
L 270.394773 373.238125 
L 270.394773 235.270125 
L 179.647803 235.270125 
z
" clip-path="url(#p7cfdbfccfe)" style="fill: #1f77b4"/>
   </g>
   <g id="patch_5">
    <path d="M 293.081515 373.238125 
L 383.828485 373.238125 
L 383.828485 166.286125 
L 293.081515 166.286125 
z
" clip-path="url(#p7cfdbfccfe)" style="fill: #1f77b4"/>
   </g>
   <g id="patch_6">
    <path d="M 406.515227 373.238125 
L 497.262197 373.238125 
L 497.262197 120.296792 
L 406.515227 120.296792 
z
" clip-path="url(#p7cfdbfccfe)" style="fill: #1f77b4"/>
   </g>
   <g id="patch_7">
    <path d="M 519.948939 373.238125 
L 610.695909 373.238125 
L 610.695909 97.302125 
L 519.948939 97.302125 
z
" clip-path="url(#p7cfdbfccfe)" style="fill: #1f77b4"/>
   </g>
   <g id="matplotlib.axis_1">
    <g id="xtick_1">
     <g id="line2d_1">
      <defs>
       <path id="mfb287ae315" d="M 0 0 
L 0 3.5 
" style="stroke: #000000; stroke-width: 0.8"/>
      </defs>
      <g>
       <use xlink:href="#mfb287ae315" x="111.587576" y="373.238125" style="stroke: #000000; stroke-width: 0.8"/>
      </g>
     </g>
     <g id="text_1">
      <!-- 1 -->
      <g transform="translate(108.406326 387.836562) scale(0.1 -0.1)">
       <defs>
        <path id="DejaVuSans-31" d="M 794 531 
L 1825 531 
L 1825 4091 
L 703 3866 
L 703 4441 
L 1819 4666 
L 2450 4666 
L 2450 531 
L 3481 531 
L 3481 0 
L 794 0 
L 794 531 
z
" transform="scale(0.015625)"/>
       </defs>
       <use xlink:href="#DejaVuSans-31"/>
      </g>
     </g>
    </g>
    <g id="xtick_2">
     <g id="line2d_2">
      <g>
       <use xlink:href="#mfb287ae315" x="225.021288" y="373.238125" style="stroke: #000000; stroke-width: 0.8"/>
      </g>
     </g>
     <g id="text_2">
      <!-- 2 -->
      <g transform="translate(221.840038 387.836562) scale(0.1 -0.1)">
       <defs>
        <path id="DejaVuSans-32" d="M 1228 531 
L 3431 531 
L 3431 0 
L 469 0 
L 469 531 
Q 828 903 1448 1529 
Q 2069 2156 2228 2338 
Q 2531 2678 2651 2914 
Q 2772 3150 2772 3378 
Q 2772 3750 2511 3984 
Q 2250 4219 1831 4219 
Q 1534 4219 1204 4116 
Q 875 4013 500 3803 
L 500 4441 
Q 881 4594 1212 4672 
Q 1544 4750 1819 4750 
Q 2544 4750 2975 4387 
Q 3406 4025 3406 3419 
Q 3406 3131 3298 2873 
Q 3191 2616 2906 2266 
Q 2828 2175 2409 1742 
Q 1991 1309 1228 531 
z
" transform="scale(0.015625)"/>
       </defs>
       <use xlink:href="#DejaVuSans-32"/>
      </g>
     </g>
    </g>
    <g id="xtick_3">
     <g id="line2d_3">
      <g>
       <use xlink:href="#mfb287ae315" x="338.455" y="373.238125" style="stroke: #000000; stroke-width: 0.8"/>
      </g>
     </g>
     <g id="text_3">
      <!-- 3 -->
      <g transform="translate(335.27375 387.836562) scale(0.1 -0.1)">
       <defs>
        <path id="DejaVuSans-33" d="M 2597 2516 
Q 3050 2419 3304 2112 
Q 3559 1806 3559 1356 
Q 3559 666 3084 287 
Q 2609 -91 1734 -91 
Q 1441 -91 1130 -33 
Q 819 25 488 141 
L 488 750 
Q 750 597 1062 519 
Q 1375 441 1716 441 
Q 2309 441 2620 675 
Q 2931 909 2931 1356 
Q 2931 1769 2642 2001 
Q 2353 2234 1838 2234 
L 1294 2234 
L 1294 2753 
L 1863 2753 
Q 2328 2753 2575 2939 
Q 2822 3125 2822 3475 
Q 2822 3834 2567 4026 
Q 2313 4219 1838 4219 
Q 1578 4219 1281 4162 
Q 984 4106 628 3988 
L 628 4550 
Q 988 4650 1302 4700 
Q 1616 4750 1894 4750 
Q 2613 4750 3031 4423 
Q 3450 4097 3450 3541 
Q 3450 3153 3228 2886 
Q 3006 2619 2597 2516 
z
" transform="scale(0.015625)"/>
       </defs>
       <use xlink:href="#DejaVuSans-33"/>
      </g>
     </g>
    </g>
    <g id="xtick_4">
     <g id="line2d_4">
      <g>
       <use xlink:href="#mfb287ae315" x="451.888712" y="373.238125" style="stroke: #000000; stroke-width: 0.8"/>
      </g>
     </g>
     <g id="text_4">
      <!-- 4 -->
      <g transform="translate(448.707462 387.836562) scale(0.1 -0.1)">
       <defs>
        <path id="DejaVuSans-34" d="M 2419 4116 
L 825 1625 
L 2419 1625 
L 2419 4116 
z
M 2253 4666 
L 3047 4666 
L 3047 1625 
L 3713 1625 
L 3713 1100 
L 3047 1100 
L 3047 0 
L 2419 0 
L 2419 1100 
L 313 1100 
L 313 1709 
L 2253 4666 
z
" transform="scale(0.015625)"/>
       </defs>
       <use xlink:href="#DejaVuSans-34"/>
      </g>
     </g>
    </g>
    <g id="xtick_5">
     <g id="line2d_5">
      <g>
       <use xlink:href="#mfb287ae315" x="565.322424" y="373.238125" style="stroke: #000000; stroke-width: 0.8"/>
      </g>
     </g>
     <g id="text_5">
      <!-- 5 -->
      <g transform="translate(562.141174 387.836562) scale(0.1 -0.1)">
       <defs>
        <path id="DejaVuSans-35" d="M 691 4666 
L 3169 4666 
L 3169 4134 
L 1269 4134 
L 1269 2991 
Q 1406 3038 1543 3061 
Q 1681 3084 1819 3084 
Q 2600 3084 3056 2656 
Q 3513 2228 3513 1497 
Q 3513 744 3044 326 
Q 2575 -91 1722 -91 
Q 1428 -91 1123 -41 
Q 819 9 494 109 
L 494 744 
Q 775 591 1075 516 
Q 1375 441 1709 441 
Q 2250 441 2565 725 
Q 2881 1009 2881 1497 
Q 2881 1984 2565 2268 
Q 2250 2553 1709 2553 
Q 1456 2553 1204 2497 
Q 953 2441 691 2322 
L 691 4666 
z
" transform="scale(0.015625)"/>
       </defs>
       <use xlink:href="#DejaVuSans-35"/>
      </g>
     </g>
    </g>
    <g id="text_6">
     <!-- Año desde el lanzamiento -->
     <g transform="translate(273.633125 401.514687) scale(0.1 -0.1)">
      <defs>
       <path id="DejaVuSans-41" d="M 2188 4044 
L 1331 1722 
L 3047 1722 
L 2188 4044 
z
M 1831 4666 
L 2547 4666 
L 4325 0 
L 3669 0 
L 3244 1197 
L 1141 1197 
L 716 0 
L 50 0 
L 1831 4666 
z
" transform="scale(0.015625)"/>
       <path id="DejaVuSans-f1" d="M 3513 2113 
L 3513 0 
L 2938 0 
L 2938 2094 
Q 2938 2591 2744 2837 
Q 2550 3084 2163 3084 
Q 1697 3084 1428 2787 
Q 1159 2491 1159 1978 
L 1159 0 
L 581 0 
L 581 3500 
L 1159 3500 
L 1159 2956 
Q 1366 3272 1645 3428 
Q 1925 3584 2291 3584 
Q 2894 3584 3203 3211 
Q 3513 2838 3513 2113 
z
M 2060 4281 
L 1881 4453 
Q 1813 4516 1761 4545 
Q 1710 4575 1669 4575 
Q 1550 4575 1494 4461 
Q 1438 4347 1431 4091 
L 1041 4091 
Q 1047 4513 1206 4742 
Q 1366 4972 1650 4972 
Q 1769 4972 1869 4928 
Q 1969 4884 2085 4781 
L 2263 4609 
Q 2331 4547 2383 4517 
Q 2435 4488 2475 4488 
Q 2594 4488 2650 4602 
Q 2706 4716 2713 4972 
L 3103 4972 
Q 3097 4550 2937 4320 
Q 2778 4091 2494 4091 
Q 2375 4091 2275 4134 
Q 2175 4178 2060 4281 
z
" transform="scale(0.015625)"/>
       <path id="DejaVuSans-6f" d="M 1959 3097 
Q 1497 3097 1228 2736 
Q 959 2375 959 1747 
Q 959 1119 1226 758 
Q 1494 397 1959 397 
Q 2419 397 2687 759 
Q 2956 1122 2956 1747 
Q 2956 2369 2687 2733 
Q 2419 3097 1959 3097 
z
M 1959 3584 
Q 2709 3584 3137 3096 
Q 3566 2609 3566 1747 
Q 3566 888 3137 398 
Q 2709 -91 1959 -91 
Q 1206 -91 779 398 
Q 353 888 353 1747 
Q 353 2609 779 3096 
Q 1206 3584 1959 3584 
z
" transform="scale(0.015625)"/>
       <path id="DejaVuSans-20" transform="scale(0.015625)"/>
       <path id="DejaVuSans-64" d="M 2906 2969 
L 2906 4863 
L 3481 4863 
L 3481 0 
L 2906 0 
L 2906 525 
Q 2725 213 2448 61 
Q 2172 -91 1784 -91 
Q 1150 -91 751 415 
Q 353 922 353 1747 
Q 353 2572 751 3078 
Q 1150 3584 1784 3584 
Q 2172 3584 2448 3432 
Q 2725 3281 2906 2969 
z
M 947 1747 
Q 947 1113 1208 752 
Q 1469 391 1925 391 
Q 2381 391 2643 752 
Q 2906 1113 2906 1747 
Q 2906 2381 2643 2742 
Q 2381 3103 1925 3103 
Q 1469 3103 1208 2742 
Q 947 2381 947 1747 
z
" transform="scale(0.015625)"/>
       <path id="DejaVuSans-65" d="M 3597 1894 
L 3597 1613 
L 953 1613 
Q 991 1019 1311 708 
Q 1631 397 2203 397 
Q 2534 397 2845 478 
Q 3156 559 3463 722 
L 3463 178 
Q 3153 47 2828 -22 
Q 2503 -91 2169 -91 
Q 1331 -91 842 396 
Q 353 884 353 1716 
Q 353 2575 817 3079 
Q 1281 3584 2069 3584 
Q 2775 3584 3186 3129 
Q 3597 2675 3597 1894 
z
M 3022 2063 
Q 3016 2534 2758 2815 
Q 2500 3097 2075 3097 
Q 1594 3097 1305 2825 
Q 1016 2553 972 2059 
L 3022 2063 
z
" transform="scale(0.015625)"/>
       <path id="DejaVuSans-73" d="M 2834 3397 
L 2834 2853 
Q 2591 2978 2328 3040 
Q 2066 3103 1784 3103 
Q 1356 3103 1142 2972 
Q 928 2841 928 2578 
Q 928 2378 1081 2264 
Q 1234 2150 1697 2047 
L 1894 2003 
Q 2506 1872 2764 1633 
Q 3022 1394 3022 966 
Q 3022 478 2636 193 
Q 2250 -91 1575 -91 
Q 1294 -91 989 -36 
Q 684 19 347 128 
L 347 722 
Q 666 556 975 473 
Q 1284 391 1588 391 
Q 1994 391 2212 530 
Q 2431 669 2431 922 
Q 2431 1156 2273 1281 
Q 2116 1406 1581 1522 
L 1381 1569 
Q 847 1681 609 1914 
Q 372 2147 372 2553 
Q 372 3047 722 3315 
Q 1072 3584 1716 3584 
Q 2034 3584 2315 3537 
Q 2597 3491 2834 3397 
z
" transform="scale(0.015625)"/>
       <path id="DejaVuSans-6c" d="M 603 4863 
L 1178 4863 
L 1178 0 
L 603 0 
L 603 4863 
z
" transform="scale(0.015625)"/>
       <path id="DejaVuSans-61" d="M 2194 1759 
Q 1497 1759 1228 1600 
Q 959 1441 959 1056 
Q 959 750 1161 570 
Q 1363 391 1709 391 
Q 2188 391 2477 730 
Q 2766 1069 2766 1631 
L 2766 1759 
L 2194 1759 
z
M 3341 1997 
L 3341 0 
L 2766 0 
L 2766 531 
Q 2569 213 2275 61 
Q 1981 -91 1556 -91 
Q 1019 -91 701 211 
Q 384 513 384 1019 
Q 384 1609 779 1909 
Q 1175 2209 1959 2209 
L 2766 2209 
L 2766 2266 
Q 2766 2663 2505 2880 
Q 2244 3097 1772 3097 
Q 1472 3097 1187 3025 
Q 903 2953 641 2809 
L 641 3341 
Q 956 3463 1253 3523 
Q 1550 3584 1831 3584 
Q 2591 3584 2966 3190 
Q 3341 2797 3341 1997 
z
" transform="scale(0.015625)"/>
       <path id="DejaVuSans-6e" d="M 3513 2113 
L 3513 0 
L 2938 0 
L 2938 2094 
Q 2938 2591 2744 2837 
Q 2550 3084 2163 3084 
Q 1697 3084 1428 2787 
Q 1159 2491 1159 1978 
L 1159 0 
L 581 0 
L 581 3500 
L 1159 3500 
L 1159 2956 
Q 1366 3272 1645 3428 
Q 1925 3584 2291 3584 
Q 2894 3584 3203 3211 
Q 3513 2838 3513 2113 
z
" transform="scale(0.015625)"/>
       <path id="DejaVuSans-7a" d="M 353 3500 
L 3084 3500 
L 3084 2975 
L 922 459 
L 3084 459 
L 3084 0 
L 275 0 
L 275 525 
L 2438 3041 
L 353 3041 
L 353 3500 
z
" transform="scale(0.015625)"/>
       <path id="DejaVuSans-6d" d="M 3328 2828 
Q 3544 3216 3844 3400 
Q 4144 3584 4550 3584 
Q 5097 3584 5394 3201 
Q 5691 2819 5691 2113 
L 5691 0 
L 5113 0 
L 5113 2094 
Q 5113 2597 4934 2840 
Q 4756 3084 4391 3084 
Q 3944 3084 3684 2787 
Q 3425 2491 3425 1978 
L 3425 0 
L 2847 0 
L 2847 2094 
Q 2847 2600 2669 2842 
Q 2491 3084 2119 3084 
Q 1678 3084 1418 2786 
Q 1159 2488 1159 1978 
L 1159 0 
L 581 0 
L 581 3500 
L 1159 3500 
L 1159 2956 
Q 1356 3278 1631 3431 
Q 1906 3584 2284 3584 
Q 2666 3584 2933 3390 
Q 3200 3197 3328 2828 
z
" transform="scale(0.015625)"/>
       <path id="DejaVuSans-69" d="M 603 3500 
L 1178 3500 
L 1178 0 
L 603 0 
L 603 3500 
z
M 603 4863 
L 1178 4863 
L 1178 4134 
L 603 4134 
L 603 4863 
z
" transform="scale(0.015625)"/>
       <path id="DejaVuSans-74" d="M 1172 4494 
L 1172 3500 
L 2356 3500 
L 2356 3053 
L 1172 3053 
L 1172 1153 
Q 1172 725 1289 603 
Q 1406 481 1766 481 
L 2356 481 
L 2356 0 
L 1766 0 
Q 1100 0 847 248 
Q 594 497 594 1153 
L 594 3053 
L 172 3053 
L 172 3500 
L 594 3500 
L 594 4494 
L 1172 4494 
z
" transform="scale(0.015625)"/>
      </defs>
      <use xlink:href="#DejaVuSans-41"/>
      <use xlink:href="#DejaVuSans-f1" transform="translate(68.408203 0)"/>
      <use xlink:href="#DejaVuSans-6f" transform="translate(131.787109 0)"/>
      <use xlink:href="#DejaVuSans-20" transform="translate(192.96875 0)"/>
      <use xlink:href="#DejaVuSans-64" transform="translate(224.755859 0)"/>
      <use xlink:href="#DejaVuSans-65" transform="translate(288.232422 0)"/>
      <use xlink:href="#DejaVuSans-73" transform="translate(349.755859 0)"/>
      <use xlink:href="#DejaVuSans-64" transform="translate(401.855469 0)"/>
      <use xlink:href="#DejaVuSans-65" transform="translate(465.332031 0)"/>
      <use xlink:href="#DejaVuSans-20" transform="translate(526.855469 0)"/>
      <use xlink:href="#DejaVuSans-65" transform="translate(558.642578 0)"/>
      <use xlink:href="#DejaVuSans-6c" transform="translate(620.166016 0)"/>
      <use xlink:href="#DejaVuSans-20" transform="translate(647.949219 0)"/>
      <use xlink:href="#DejaVuSans-6c" transform="translate(679.736328 0)"/>
      <use xlink:href="#DejaVuSans-61" transform="translate(707.519531 0)"/>
      <use xlink:href="#DejaVuSans-6e" transform="translate(768.798828 0)"/>
      <use xlink:href="#DejaVuSans-7a" transform="translate(832.177734 0)"/>
      <use xlink:href="#DejaVuSans-61" transform="translate(884.667969 0)"/>
      <use xlink:href="#DejaVuSans-6d" transform="translate(945.947266 0)"/>
      <use xlink:href="#DejaVuSans-69" transform="translate(1043.359375 0)"/>
      <use xlink:href="#DejaVuSans-65" transform="translate(1071.142578 0)"/>
      <use xlink:href="#DejaVuSans-6e" transform="translate(1132.666016 0)"/>
      <use xlink:href="#DejaVuSans-74" transform="translate(1196.044922 0)"/>
      <use xlink:href="#DejaVuSans-6f" transform="translate(1235.253906 0)"/>
     </g>
    </g>
   </g>
   <g id="matplotlib.axis_2">
    <g id="ytick_1">
     <g id="line2d_6">
      <path d="M 38.99 373.238125 
L 637.92 373.238125 
" clip-path="url(#p7cfdbfccfe)" style="fill: none; stroke-dasharray: 2.96,1.28; stroke-dashoffset: 0; stroke: #b0b0b0; stroke-opacity: 0.3; stroke-width: 0.8"/>
     </g>
     <g id="line2d_7">
      <defs>
       <path id="m3a43a70980" d="M 0 0 
L -3.5 0 
" style="stroke: #000000; stroke-width: 0.8"/>
      </defs>
      <g>
       <use xlink:href="#m3a43a70980" x="38.99" y="373.238125" style="stroke: #000000; stroke-width: 0.8"/>
      </g>
     </g>
     <g id="text_7">
      <!-- 0 -->
      <g transform="translate(25.6275 377.037344) scale(0.1 -0.1)">
       <defs>
        <path id="DejaVuSans-30" d="M 2034 4250 
Q 1547 4250 1301 3770 
Q 1056 3291 1056 2328 
Q 1056 1369 1301 889 
Q 1547 409 2034 409 
Q 2525 409 2770 889 
Q 3016 1369 3016 2328 
Q 3016 3291 2770 3770 
Q 2525 4250 2034 4250 
z
M 2034 4750 
Q 2819 4750 3233 4129 
Q 3647 3509 3647 2328 
Q 3647 1150 3233 529 
Q 2819 -91 2034 -91 
Q 1250 -91 836 529 
Q 422 1150 422 2328 
Q 422 3509 836 4129 
Q 1250 4750 2034 4750 
z
" transform="scale(0.015625)"/>
       </defs>
       <use xlink:href="#DejaVuSans-30"/>
      </g>
     </g>
    </g>
    <g id="ytick_2">
     <g id="line2d_8">
      <path d="M 38.99 327.248792 
L 637.92 327.248792 
" clip-path="url(#p7cfdbfccfe)" style="fill: none; stroke-dasharray: 2.96,1.28; stroke-dashoffset: 0; stroke: #b0b0b0; stroke-opacity: 0.3; stroke-width: 0.8"/>
     </g>
     <g id="line2d_9">
      <g>
       <use xlink:href="#m3a43a70980" x="38.99" y="327.248792" style="stroke: #000000; stroke-width: 0.8"/>
      </g>
     </g>
     <g id="text_8">
      <!-- 1 -->
      <g transform="translate(25.6275 331.04801) scale(0.1 -0.1)">
       <use xlink:href="#DejaVuSans-31"/>
      </g>
     </g>
    </g>
    <g id="ytick_3">
     <g id="line2d_10">
      <path d="M 38.99 281.259458 
L 637.92 281.259458 
" clip-path="url(#p7cfdbfccfe)" style="fill: none; stroke-dasharray: 2.96,1.28; stroke-dashoffset: 0; stroke: #b0b0b0; stroke-opacity: 0.3; stroke-width: 0.8"/>
     </g>
     <g id="line2d_11">
      <g>
       <use xlink:href="#m3a43a70980" x="38.99" y="281.259458" style="stroke: #000000; stroke-width: 0.8"/>
      </g>
     </g>
     <g id="text_9">
      <!-- 2 -->
      <g transform="translate(25.6275 285.058677) scale(0.1 -0.1)">
       <use xlink:href="#DejaVuSans-32"/>
      </g>
     </g>
    </g>
    <g id="ytick_4">
     <g id="line2d_12">
      <path d="M 38.99 235.270125 
L 637.92 235.270125 
" clip-path="url(#p7cfdbfccfe)" style="fill: none; stroke-dasharray: 2.96,1.28; stroke-dashoffset: 0; stroke: #b0b0b0; stroke-opacity: 0.3; stroke-width: 0.8"/>
     </g>
     <g id="line2d_13">
      <g>
       <use xlink:href="#m3a43a70980" x="38.99" y="235.270125" style="stroke: #000000; stroke-width: 0.8"/>
      </g>
     </g>
     <g id="text_10">
      <!-- 3 -->
      <g transform="translate(25.6275 239.069344) scale(0.1 -0.1)">
       <use xlink:href="#DejaVuSans-33"/>
      </g>
     </g>
    </g>
    <g id="ytick_5">
     <g id="line2d_14">
      <path d="M 38.99 189.280792 
L 637.92 189.280792 
" clip-path="url(#p7cfdbfccfe)" style="fill: none; stroke-dasharray: 2.96,1.28; stroke-dashoffset: 0; stroke: #b0b0b0; stroke-opacity: 0.3; stroke-width: 0.8"/>
     </g>
     <g id="line2d_15">
      <g>
       <use xlink:href="#m3a43a70980" x="38.99" y="189.280792" style="stroke: #000000; stroke-width: 0.8"/>
      </g>
     </g>
     <g id="text_11">
      <!-- 4 -->
      <g transform="translate(25.6275 193.08001) scale(0.1 -0.1)">
       <use xlink:href="#DejaVuSans-34"/>
      </g>
     </g>
    </g>
    <g id="ytick_6">
     <g id="line2d_16">
      <path d="M 38.99 143.291458 
L 637.92 143.291458 
" clip-path="url(#p7cfdbfccfe)" style="fill: none; stroke-dasharray: 2.96,1.28; stroke-dashoffset: 0; stroke: #b0b0b0; stroke-opacity: 0.3; stroke-width: 0.8"/>
     </g>
     <g id="line2d_17">
      <g>
       <use xlink:href="#m3a43a70980" x="38.99" y="143.291458" style="stroke: #000000; stroke-width: 0.8"/>
      </g>
     </g>
     <g id="text_12">
      <!-- 5 -->
      <g transform="translate(25.6275 147.090677) scale(0.1 -0.1)">
       <use xlink:href="#DejaVuSans-35"/>
      </g>
     </g>
    </g>
    <g id="ytick_7">
     <g id="line2d_18">
      <path d="M 38.99 97.302125 
L 637.92 97.302125 
" clip-path="url(#p7cfdbfccfe)" style="fill: none; stroke-dasharray: 2.96,1.28; stroke-dashoffset: 0; stroke: #b0b0b0; stroke-opacity: 0.3; stroke-width: 0.8"/>
     </g>
     <g id="line2d_19">
      <g>
       <use xlink:href="#m3a43a70980" x="38.99" y="97.302125" style="stroke: #000000; stroke-width: 0.8"/>
      </g>
     </g>
     <g id="text_13">
      <!-- 6 -->
      <g transform="translate(25.6275 101.101344) scale(0.1 -0.1)">
       <defs>
        <path id="DejaVuSans-36" d="M 2113 2584 
Q 1688 2584 1439 2293 
Q 1191 2003 1191 1497 
Q 1191 994 1439 701 
Q 1688 409 2113 409 
Q 2538 409 2786 701 
Q 3034 994 3034 1497 
Q 3034 2003 2786 2293 
Q 2538 2584 2113 2584 
z
M 3366 4563 
L 3366 3988 
Q 3128 4100 2886 4159 
Q 2644 4219 2406 4219 
Q 1781 4219 1451 3797 
Q 1122 3375 1075 2522 
Q 1259 2794 1537 2939 
Q 1816 3084 2150 3084 
Q 2853 3084 3261 2657 
Q 3669 2231 3669 1497 
Q 3669 778 3244 343 
Q 2819 -91 2113 -91 
Q 1303 -91 875 529 
Q 447 1150 447 2328 
Q 447 3434 972 4092 
Q 1497 4750 2381 4750 
Q 2619 4750 2861 4703 
Q 3103 4656 3366 4563 
z
" transform="scale(0.015625)"/>
       </defs>
       <use xlink:href="#DejaVuSans-36"/>
      </g>
     </g>
    </g>
    <g id="ytick_8">
     <g id="line2d_20">
      <path d="M 38.99 51.312792 
L 637.92 51.312792 
" clip-path="url(#p7cfdbfccfe)" style="fill: none; stroke-dasharray: 2.96,1.28; stroke-dashoffset: 0; stroke: #b0b0b0; stroke-opacity: 0.3; stroke-width: 0.8"/>
     </g>
     <g id="line2d_21">
      <g>
       <use xlink:href="#m3a43a70980" x="38.99" y="51.312792" style="stroke: #000000; stroke-width: 0.8"/>
      </g>
     </g>
     <g id="text_14">
      <!-- 7 -->
      <g transform="translate(25.6275 55.11201) scale(0.1 -0.1)">
       <defs>
        <path id="DejaVuSans-37" d="M 525 4666 
L 3525 4666 
L 3525 4397 
L 1831 0 
L 1172 0 
L 2766 4134 
L 525 4134 
L 525 4666 
z
" transform="scale(0.015625)"/>
       </defs>
       <use xlink:href="#DejaVuSans-37"/>
      </g>
     </g>
    </g>
    <g id="text_15">
     <!-- Ahorro anual (USD bn) -->
     <g transform="translate(19.547813 256.946875) rotate(-90) scale(0.1 -0.1)">
      <defs>
       <path id="DejaVuSans-68" d="M 3513 2113 
L 3513 0 
L 2938 0 
L 2938 2094 
Q 2938 2591 2744 2837 
Q 2550 3084 2163 3084 
Q 1697 3084 1428 2787 
Q 1159 2491 1159 1978 
L 1159 0 
L 581 0 
L 581 4863 
L 1159 4863 
L 1159 2956 
Q 1366 3272 1645 3428 
Q 1925 3584 2291 3584 
Q 2894 3584 3203 3211 
Q 3513 2838 3513 2113 
z
" transform="scale(0.015625)"/>
       <path id="DejaVuSans-72" d="M 2631 2963 
Q 2534 3019 2420 3045 
Q 2306 3072 2169 3072 
Q 1681 3072 1420 2755 
Q 1159 2438 1159 1844 
L 1159 0 
L 581 0 
L 581 3500 
L 1159 3500 
L 1159 2956 
Q 1341 3275 1631 3429 
Q 1922 3584 2338 3584 
Q 2397 3584 2469 3576 
Q 2541 3569 2628 3553 
L 2631 2963 
z
" transform="scale(0.015625)"/>
       <path id="DejaVuSans-75" d="M 544 1381 
L 544 3500 
L 1119 3500 
L 1119 1403 
Q 1119 906 1312 657 
Q 1506 409 1894 409 
Q 2359 409 2629 706 
Q 2900 1003 2900 1516 
L 2900 3500 
L 3475 3500 
L 3475 0 
L 2900 0 
L 2900 538 
Q 2691 219 2414 64 
Q 2138 -91 1772 -91 
Q 1169 -91 856 284 
Q 544 659 544 1381 
z
M 1991 3584 
L 1991 3584 
z
" transform="scale(0.015625)"/>
       <path id="DejaVuSans-28" d="M 1984 4856 
Q 1566 4138 1362 3434 
Q 1159 2731 1159 2009 
Q 1159 1288 1364 580 
Q 1569 -128 1984 -844 
L 1484 -844 
Q 1016 -109 783 600 
Q 550 1309 550 2009 
Q 550 2706 781 3412 
Q 1013 4119 1484 4856 
L 1984 4856 
z
" transform="scale(0.015625)"/>
       <path id="DejaVuSans-55" d="M 556 4666 
L 1191 4666 
L 1191 1831 
Q 1191 1081 1462 751 
Q 1734 422 2344 422 
Q 2950 422 3222 751 
Q 3494 1081 3494 1831 
L 3494 4666 
L 4128 4666 
L 4128 1753 
Q 4128 841 3676 375 
Q 3225 -91 2344 -91 
Q 1459 -91 1007 375 
Q 556 841 556 1753 
L 556 4666 
z
" transform="scale(0.015625)"/>
       <path id="DejaVuSans-53" d="M 3425 4513 
L 3425 3897 
Q 3066 4069 2747 4153 
Q 2428 4238 2131 4238 
Q 1616 4238 1336 4038 
Q 1056 3838 1056 3469 
Q 1056 3159 1242 3001 
Q 1428 2844 1947 2747 
L 2328 2669 
Q 3034 2534 3370 2195 
Q 3706 1856 3706 1288 
Q 3706 609 3251 259 
Q 2797 -91 1919 -91 
Q 1588 -91 1214 -16 
Q 841 59 441 206 
L 441 856 
Q 825 641 1194 531 
Q 1563 422 1919 422 
Q 2459 422 2753 634 
Q 3047 847 3047 1241 
Q 3047 1584 2836 1778 
Q 2625 1972 2144 2069 
L 1759 2144 
Q 1053 2284 737 2584 
Q 422 2884 422 3419 
Q 422 4038 858 4394 
Q 1294 4750 2059 4750 
Q 2388 4750 2728 4690 
Q 3069 4631 3425 4513 
z
" transform="scale(0.015625)"/>
       <path id="DejaVuSans-44" d="M 1259 4147 
L 1259 519 
L 2022 519 
Q 2988 519 3436 956 
Q 3884 1394 3884 2338 
Q 3884 3275 3436 3711 
Q 2988 4147 2022 4147 
L 1259 4147 
z
M 628 4666 
L 1925 4666 
Q 3281 4666 3915 4102 
Q 4550 3538 4550 2338 
Q 4550 1131 3912 565 
Q 3275 0 1925 0 
L 628 0 
L 628 4666 
z
" transform="scale(0.015625)"/>
       <path id="DejaVuSans-62" d="M 3116 1747 
Q 3116 2381 2855 2742 
Q 2594 3103 2138 3103 
Q 1681 3103 1420 2742 
Q 1159 2381 1159 1747 
Q 1159 1113 1420 752 
Q 1681 391 2138 391 
Q 2594 391 2855 752 
Q 3116 1113 3116 1747 
z
M 1159 2969 
Q 1341 3281 1617 3432 
Q 1894 3584 2278 3584 
Q 2916 3584 3314 3078 
Q 3713 2572 3713 1747 
Q 3713 922 3314 415 
Q 2916 -91 2278 -91 
Q 1894 -91 1617 61 
Q 1341 213 1159 525 
L 1159 0 
L 581 0 
L 581 4863 
L 1159 4863 
L 1159 2969 
z
" transform="scale(0.015625)"/>
       <path id="DejaVuSans-29" d="M 513 4856 
L 1013 4856 
Q 1481 4119 1714 3412 
Q 1947 2706 1947 2009 
Q 1947 1309 1714 600 
Q 1481 -109 1013 -844 
L 513 -844 
Q 928 -128 1133 580 
Q 1338 1288 1338 2009 
Q 1338 2731 1133 3434 
Q 928 4138 513 4856 
z
" transform="scale(0.015625)"/>
      </defs>
      <use xlink:href="#DejaVuSans-41"/>
      <use xlink:href="#DejaVuSans-68" transform="translate(68.408203 0)"/>
      <use xlink:href="#DejaVuSans-6f" transform="translate(131.787109 0)"/>
      <use xlink:href="#DejaVuSans-72" transform="translate(192.96875 0)"/>
      <use xlink:href="#DejaVuSans-72" transform="translate(232.332031 0)"/>
      <use xlink:href="#DejaVuSans-6f" transform="translate(271.195312 0)"/>
      <use xlink:href="#DejaVuSans-20" transform="translate(332.376953 0)"/>
      <use xlink:href="#DejaVuSans-61" transform="translate(364.164062 0)"/>
      <use xlink:href="#DejaVuSans-6e" transform="translate(425.443359 0)"/>
      <use xlink:href="#DejaVuSans-75" transform="translate(488.822266 0)"/>
      <use xlink:href="#DejaVuSans-61" transform="translate(552.201172 0)"/>
      <use xlink:href="#DejaVuSans-6c" transform="translate(613.480469 0)"/>
      <use xlink:href="#DejaVuSans-20" transform="translate(641.263672 0)"/>
      <use xlink:href="#DejaVuSans-28" transform="translate(673.050781 0)"/>
      <use xlink:href="#DejaVuSans-55" transform="translate(712.064453 0)"/>
      <use xlink:href="#DejaVuSans-53" transform="translate(785.257812 0)"/>
      <use xlink:href="#DejaVuSans-44" transform="translate(848.734375 0)"/>
      <use xlink:href="#DejaVuSans-20" transform="translate(925.736328 0)"/>
      <use xlink:href="#DejaVuSans-62" transform="translate(957.523438 0)"/>
      <use xlink:href="#DejaVuSans-6e" transform="translate(1021 0)"/>
      <use xlink:href="#DejaVuSans-29" transform="translate(1084.378906 0)"/>
     </g>
    </g>
   </g>
   <g id="patch_8">
    <path d="M 38.99 373.238125 
L 38.99 28.318125 
" style="fill: none; stroke: #000000; stroke-width: 0.8; stroke-linejoin: miter; stroke-linecap: square"/>
   </g>
   <g id="patch_9">
    <path d="M 637.92 373.238125 
L 637.92 28.318125 
" style="fill: none; stroke: #000000; stroke-width: 0.8; stroke-linejoin: miter; stroke-linecap: square"/>
   </g>
   <g id="patch_10">
    <path d="M 38.99 373.238125 
L 637.92 373.238125 
" style="fill: none; stroke: #000000; stroke-width: 0.8; stroke-linejoin: miter; stroke-linecap: square"/>
   </g>
   <g id="patch_11">
    <path d="M 38.99 28.318125 
L 637.92 28.318125 
" style="fill: none; stroke: #000000; stroke-width: 0.8; stroke-linejoin: miter; stroke-linecap: square"/>
   </g>
   <g id="text_16">
    <!-- 1.5 -->
    <g transform="translate(102.840857 298.287322) scale(0.11 -0.11)">
     <defs>
      <path id="DejaVuSans-2e" d="M 684 794 
L 1344 794 
L 1344 0 
L 684 0 
L 684 794 
z
" transform="scale(0.015625)"/>
     </defs>
     <use xlink:href="#DejaVuSans-31"/>
     <use xlink:href="#DejaVuSans-2e" transform="translate(63.623047 0)"/>
     <use xlink:href="#DejaVuSans-35" transform="translate(95.410156 0)"/>
    </g>
   </g>
   <g id="text_17">
    <!-- 3.0 -->
    <g transform="translate(216.274569 229.303322) scale(0.11 -0.11)">
     <use xlink:href="#DejaVuSans-33"/>
     <use xlink:href="#DejaVuSans-2e" transform="translate(63.623047 0)"/>
     <use xlink:href="#DejaVuSans-30" transform="translate(95.410156 0)"/>
    </g>
   </g>
   <g id="text_18">
    <!-- 4.5 -->
    <g transform="translate(329.708281 160.319322) scale(0.11 -0.11)">
     <use xlink:href="#DejaVuSans-34"/>
     <use xlink:href="#DejaVuSans-2e" transform="translate(63.623047 0)"/>
     <use xlink:href="#DejaVuSans-35" transform="translate(95.410156 0)"/>
    </g>
   </g>
   <g id="text_19">
    <!-- 5.5 -->
    <g transform="translate(443.141993 114.329989) scale(0.11 -0.11)">
     <use xlink:href="#DejaVuSans-35"/>
     <use xlink:href="#DejaVuSans-2e" transform="translate(63.623047 0)"/>
     <use xlink:href="#DejaVuSans-35" transform="translate(95.410156 0)"/>
    </g>
   </g>
   <g id="text_20">
    <!-- 6.0 -->
    <g transform="translate(556.575705 91.335322) scale(0.11 -0.11)">
     <use xlink:href="#DejaVuSans-36"/>
     <use xlink:href="#DejaVuSans-2e" transform="translate(63.623047 0)"/>
     <use xlink:href="#DejaVuSans-30" transform="translate(95.410156 0)"/>
    </g>
   </g>
   <g id="patch_12">
    <path d="M 563.537841 97.556912 
Q 564.430133 97.429519 564.215614 97.460146 
" style="fill: none; stroke: #000000; stroke-linecap: round"/>
    <path d="M 559.54884 95.904119 
L 564.215614 97.460146 
L 560.170728 100.259949 
" style="fill: none; stroke: #000000; stroke-linecap: round"/>
   </g>
   <g id="text_21">
    <g id="patch_13">
     <path d="M 406.515227 117.786581 
L 573.378352 117.786581 
Q 577.778352 117.786581 577.778352 113.386581 
L 577.778352 102.740644 
Q 577.778352 98.340644 573.378352 98.340644 
L 406.515227 98.340644 
Q 402.115227 98.340644 402.115227 102.740644 
L 402.115227 113.386581 
Q 402.115227 117.786581 406.515227 117.786581 
z
" style="fill: #ffffff; stroke: #808080; stroke-linejoin: miter"/>
    </g>
    <!-- Acumulado 5 años ≈ $20.5 bn -->
    <g transform="translate(406.515227 111.098925) scale(0.11 -0.11)">
     <defs>
      <path id="DejaVuSans-63" d="M 3122 3366 
L 3122 2828 
Q 2878 2963 2633 3030 
Q 2388 3097 2138 3097 
Q 1578 3097 1268 2742 
Q 959 2388 959 1747 
Q 959 1106 1268 751 
Q 1578 397 2138 397 
Q 2388 397 2633 464 
Q 2878 531 3122 666 
L 3122 134 
Q 2881 22 2623 -34 
Q 2366 -91 2075 -91 
Q 1284 -91 818 406 
Q 353 903 353 1747 
Q 353 2603 823 3093 
Q 1294 3584 2113 3584 
Q 2378 3584 2631 3529 
Q 2884 3475 3122 3366 
z
" transform="scale(0.015625)"/>
      <path id="DejaVuSans-2248" d="M 4684 1947 
L 4684 1388 
Q 4356 1144 4076 1036 
Q 3797 928 3494 928 
Q 3150 928 2694 1113 
Q 2663 1125 2641 1134 
Q 2622 1141 2575 1159 
Q 2091 1350 1797 1350 
Q 1522 1350 1253 1231 
Q 984 1113 678 850 
L 678 1409 
Q 1006 1653 1286 1761 
Q 1566 1869 1869 1869 
Q 2213 1869 2672 1684 
Q 2706 1669 2722 1663 
Q 2741 1656 2788 1638 
Q 3272 1447 3566 1447 
Q 3834 1447 4098 1564 
Q 4363 1681 4684 1947 
z
M 4684 3163 
L 4684 2606 
Q 4356 2359 4076 2251 
Q 3797 2144 3494 2144 
Q 3150 2144 2694 2328 
Q 2663 2341 2641 2350 
Q 2622 2356 2575 2375 
Q 2091 2566 1797 2566 
Q 1522 2566 1253 2447 
Q 984 2328 678 2069 
L 678 2625 
Q 1006 2869 1286 2976 
Q 1566 3084 1869 3084 
Q 2213 3084 2672 2900 
Q 2703 2888 2719 2881 
Q 2741 2872 2788 2853 
Q 3272 2663 3566 2663 
Q 3834 2663 4098 2780 
Q 4363 2897 4684 3163 
z
" transform="scale(0.015625)"/>
      <path id="DejaVuSans-24" d="M 2163 -941 
L 1850 -941 
L 1847 0 
Q 1519 6 1191 76 
Q 863 147 531 288 
L 531 850 
Q 850 650 1176 548 
Q 1503 447 1850 444 
L 1850 1869 
Q 1159 1981 845 2250 
Q 531 2519 531 2988 
Q 531 3497 872 3790 
Q 1213 4084 1850 4128 
L 1850 4863 
L 2163 4863 
L 2163 4138 
Q 2453 4125 2725 4076 
Q 2997 4028 3256 3944 
L 3256 3397 
Q 2997 3528 2723 3600 
Q 2450 3672 2163 3684 
L 2163 2350 
Q 2872 2241 3206 1959 
Q 3541 1678 3541 1191 
Q 3541 663 3186 358 
Q 2831 53 2163 6 
L 2163 -941 
z
M 1850 2406 
L 1850 3688 
Q 1488 3647 1297 3481 
Q 1106 3316 1106 3041 
Q 1106 2772 1282 2622 
Q 1459 2472 1850 2406 
z
M 2163 1806 
L 2163 453 
Q 2559 506 2761 678 
Q 2963 850 2963 1131 
Q 2963 1406 2770 1568 
Q 2578 1731 2163 1806 
z
" transform="scale(0.015625)"/>
     </defs>
     <use xlink:href="#DejaVuSans-41"/>
     <use xlink:href="#DejaVuSans-63" transform="translate(66.658203 0)"/>
     <use xlink:href="#DejaVuSans-75" transform="translate(121.638672 0)"/>
     <use xlink:href="#DejaVuSans-6d" transform="translate(185.017578 0)"/>
     <use xlink:href="#DejaVuSans-75" transform="translate(282.429688 0)"/>
     <use xlink:href="#DejaVuSans-6c" transform="translate(345.808594 0)"/>
     <use xlink:href="#DejaVuSans-61" transform="translate(373.591797 0)"/>
     <use xlink:href="#DejaVuSans-64" transform="translate(434.871094 0)"/>
     <use xlink:href="#DejaVuSans-6f" transform="translate(498.347656 0)"/>
     <use xlink:href="#DejaVuSans-20" transform="translate(559.529297 0)"/>
     <use xlink:href="#DejaVuSans-35" transform="translate(591.316406 0)"/>
     <use xlink:href="#DejaVuSans-20" transform="translate(654.939453 0)"/>
     <use xlink:href="#DejaVuSans-61" transform="translate(686.726562 0)"/>
     <use xlink:href="#DejaVuSans-f1" transform="translate(748.005859 0)"/>
     <use xlink:href="#DejaVuSans-6f" transform="translate(811.384766 0)"/>
     <use xlink:href="#DejaVuSans-73" transform="translate(872.566406 0)"/>
     <use xlink:href="#DejaVuSans-20" transform="translate(924.666016 0)"/>
     <use xlink:href="#DejaVuSans-2248" transform="translate(956.453125 0)"/>
     <use xlink:href="#DejaVuSans-20" transform="translate(1040.242188 0)"/>
     <use xlink:href="#DejaVuSans-24" transform="translate(1072.029297 0)"/>
     <use xlink:href="#DejaVuSans-32" transform="translate(1135.652344 0)"/>
     <use xlink:href="#DejaVuSans-30" transform="translate(1199.275391 0)"/>
     <use xlink:href="#DejaVuSans-2e" transform="translate(1262.898438 0)"/>
     <use xlink:href="#DejaVuSans-35" transform="translate(1294.685547 0)"/>
     <use xlink:href="#DejaVuSans-20" transform="translate(1358.308594 0)"/>
     <use xlink:href="#DejaVuSans-62" transform="translate(1390.095703 0)"/>
     <use xlink:href="#DejaVuSans-6e" transform="translate(1453.572266 0)"/>
    </g>
   </g>
   <g id="text_22">
    <!-- Exhibit 8.1 — Ahorros Anuales Estimados (USD miles de millones) -->
    <g transform="translate(140.974375 16.318125) scale(0.12 -0.12)">
     <defs>
      <path id="DejaVuSans-45" d="M 628 4666 
L 3578 4666 
L 3578 4134 
L 1259 4134 
L 1259 2753 
L 3481 2753 
L 3481 2222 
L 1259 2222 
L 1259 531 
L 3634 531 
L 3634 0 
L 628 0 
L 628 4666 
z
" transform="scale(0.015625)"/>
      <path id="DejaVuSans-78" d="M 3513 3500 
L 2247 1797 
L 3578 0 
L 2900 0 
L 1881 1375 
L 863 0 
L 184 0 
L 1544 1831 
L 300 3500 
L 978 3500 
L 1906 2253 
L 2834 3500 
L 3513 3500 
z
" transform="scale(0.015625)"/>
      <path id="DejaVuSans-38" d="M 2034 2216 
Q 1584 2216 1326 1975 
Q 1069 1734 1069 1313 
Q 1069 891 1326 650 
Q 1584 409 2034 409 
Q 2484 409 2743 651 
Q 3003 894 3003 1313 
Q 3003 1734 2745 1975 
Q 2488 2216 2034 2216 
z
M 1403 2484 
Q 997 2584 770 2862 
Q 544 3141 544 3541 
Q 544 4100 942 4425 
Q 1341 4750 2034 4750 
Q 2731 4750 3128 4425 
Q 3525 4100 3525 3541 
Q 3525 3141 3298 2862 
Q 3072 2584 2669 2484 
Q 3125 2378 3379 2068 
Q 3634 1759 3634 1313 
Q 3634 634 3220 271 
Q 2806 -91 2034 -91 
Q 1263 -91 848 271 
Q 434 634 434 1313 
Q 434 1759 690 2068 
Q 947 2378 1403 2484 
z
M 1172 3481 
Q 1172 3119 1398 2916 
Q 1625 2713 2034 2713 
Q 2441 2713 2670 2916 
Q 2900 3119 2900 3481 
Q 2900 3844 2670 4047 
Q 2441 4250 2034 4250 
Q 1625 4250 1398 4047 
Q 1172 3844 1172 3481 
z
" transform="scale(0.015625)"/>
      <path id="DejaVuSans-2014" d="M 313 1978 
L 6088 1978 
L 6088 1528 
L 313 1528 
L 313 1978 
z
" transform="scale(0.015625)"/>
     </defs>
     <use xlink:href="#DejaVuSans-45"/>
     <use xlink:href="#DejaVuSans-78" transform="translate(63.183594 0)"/>
     <use xlink:href="#DejaVuSans-68" transform="translate(122.363281 0)"/>
     <use xlink:href="#DejaVuSans-69" transform="translate(185.742188 0)"/>
     <use xlink:href="#DejaVuSans-62" transform="translate(213.525391 0)"/>
     <use xlink:href="#DejaVuSans-69" transform="translate(277.001953 0)"/>
     <use xlink:href="#DejaVuSans-74" transform="translate(304.785156 0)"/>
     <use xlink:href="#DejaVuSans-20" transform="translate(343.994141 0)"/>
     <use xlink:href="#DejaVuSans-38" transform="translate(375.78125 0)"/>
     <use xlink:href="#DejaVuSans-2e" transform="translate(439.404297 0)"/>
     <use xlink:href="#DejaVuSans-31" transform="translate(471.191406 0)"/>
     <use xlink:href="#DejaVuSans-20" transform="translate(534.814453 0)"/>
     <use xlink:href="#DejaVuSans-2014" transform="translate(566.601562 0)"/>
     <use xlink:href="#DejaVuSans-20" transform="translate(666.601562 0)"/>
     <use xlink:href="#DejaVuSans-41" transform="translate(698.388672 0)"/>
     <use xlink:href="#DejaVuSans-68" transform="translate(766.796875 0)"/>
     <use xlink:href="#DejaVuSans-6f" transform="translate(830.175781 0)"/>
     <use xlink:href="#DejaVuSans-72" transform="translate(891.357422 0)"/>
     <use xlink:href="#DejaVuSans-72" transform="translate(930.720703 0)"/>
     <use xlink:href="#DejaVuSans-6f" transform="translate(969.583984 0)"/>
     <use xlink:href="#DejaVuSans-73" transform="translate(1030.765625 0)"/>
     <use xlink:href="#DejaVuSans-20" transform="translate(1082.865234 0)"/>
     <use xlink:href="#DejaVuSans-41" transform="translate(1114.652344 0)"/>
     <use xlink:href="#DejaVuSans-6e" transform="translate(1183.060547 0)"/>
     <use xlink:href="#DejaVuSans-75" transform="translate(1246.439453 0)"/>
     <use xlink:href="#DejaVuSans-61" transform="translate(1309.818359 0)"/>
     <use xlink:href="#DejaVuSans-6c" transform="translate(1371.097656 0)"/>
     <use xlink:href="#DejaVuSans-65" transform="translate(1398.880859 0)"/>
     <use xlink:href="#DejaVuSans-73" transform="translate(1460.404297 0)"/>
     <use xlink:href="#DejaVuSans-20" transform="translate(1512.503906 0)"/>
     <use xlink:href="#DejaVuSans-45" transform="translate(1544.291016 0)"/>
     <use xlink:href="#DejaVuSans-73" transform="translate(1607.474609 0)"/>
     <use xlink:href="#DejaVuSans-74" transform="translate(1659.574219 0)"/>
     <use xlink:href="#DejaVuSans-69" transform="translate(1698.783203 0)"/>
     <use xlink:href="#DejaVuSans-6d" transform="translate(1726.566406 0)"/>
     <use xlink:href="#DejaVuSans-61" transform="translate(1823.978516 0)"/>
     <use xlink:href="#DejaVuSans-64" transform="translate(1885.257812 0)"/>
     <use xlink:href="#DejaVuSans-6f" transform="translate(1948.734375 0)"/>
     <use xlink:href="#DejaVuSans-73" transform="translate(2009.916016 0)"/>
     <use xlink:href="#DejaVuSans-20" transform="translate(2062.015625 0)"/>
     <use xlink:href="#DejaVuSans-28" transform="translate(2093.802734 0)"/>
     <use xlink:href="#DejaVuSans-55" transform="translate(2132.816406 0)"/>
     <use xlink:href="#DejaVuSans-53" transform="translate(2206.009766 0)"/>
     <use xlink:href="#DejaVuSans-44" transform="translate(2269.486328 0)"/>
     <use xlink:href="#DejaVuSans-20" transform="translate(2346.488281 0)"/>
     <use xlink:href="#DejaVuSans-6d" transform="translate(2378.275391 0)"/>
     <use xlink:href="#DejaVuSans-69" transform="translate(2475.6875 0)"/>
     <use xlink:href="#DejaVuSans-6c" transform="translate(2503.470703 0)"/>
     <use xlink:href="#DejaVuSans-65" transform="translate(2531.253906 0)"/>
     <use xlink:href="#DejaVuSans-73" transform="translate(2592.777344 0)"/>
     <use xlink:href="#DejaVuSans-20" transform="translate(2644.876953 0)"/>
     <use xlink:href="#DejaVuSans-64" transform="translate(2676.664062 0)"/>
     <use xlink:href="#DejaVuSans-65" transform="translate(2740.140625 0)"/>
     <use xlink:href="#DejaVuSans-20" transform="translate(2801.664062 0)"/>
     <use xlink:href="#DejaVuSans-6d" transform="translate(2833.451172 0)"/>
     <use xlink:href="#DejaVuSans-69" transform="translate(2930.863281 0)"/>
     <use xlink:href="#DejaVuSans-6c" transform="translate(2958.646484 0)"/>
     <use xlink:href="#DejaVuSans-6c" transform="translate(2986.429688 0)"/>
     <use xlink:href="#DejaVuSans-6f" transform="translate(3014.212891 0)"/>
     <use xlink:href="#DejaVuSans-6e" transform="translate(3075.394531 0)"/>
     <use xlink:href="#DejaVuSans-65" transform="translate(3138.773438 0)"/>
     <use xlink:href="#DejaVuSans-73" transform="translate(3200.296875 0)"/>
     <use xlink:href="#DejaVuSans-29" transform="translate(3252.396484 0)"/>
    </g>
   </g>
  </g>
  <g id="text_23">
   <!-- Fuente: Tabla de proyección a 5 años (ahorros anuales en USD). -->
   <g transform="translate(7.2 423.838125) scale(0.09 -0.09)">
    <defs>
     <path id="DejaVuSans-46" d="M 628 4666 
L 3309 4666 
L 3309 4134 
L 1259 4134 
L 1259 2759 
L 3109 2759 
L 3109 2228 
L 1259 2228 
L 1259 0 
L 628 0 
L 628 4666 
z
" transform="scale(0.015625)"/>
     <path id="DejaVuSans-3a" d="M 750 794 
L 1409 794 
L 1409 0 
L 750 0 
L 750 794 
z
M 750 3309 
L 1409 3309 
L 1409 2516 
L 750 2516 
L 750 3309 
z
" transform="scale(0.015625)"/>
     <path id="DejaVuSans-54" d="M -19 4666 
L 3928 4666 
L 3928 4134 
L 2272 4134 
L 2272 0 
L 1638 0 
L 1638 4134 
L -19 4134 
L -19 4666 
z
" transform="scale(0.015625)"/>
     <path id="DejaVuSans-70" d="M 1159 525 
L 1159 -1331 
L 581 -1331 
L 581 3500 
L 1159 3500 
L 1159 2969 
Q 1341 3281 1617 3432 
Q 1894 3584 2278 3584 
Q 2916 3584 3314 3078 
Q 3713 2572 3713 1747 
Q 3713 922 3314 415 
Q 2916 -91 2278 -91 
Q 1894 -91 1617 61 
Q 1341 213 1159 525 
z
M 3116 1747 
Q 3116 2381 2855 2742 
Q 2594 3103 2138 3103 
Q 1681 3103 1420 2742 
Q 1159 2381 1159 1747 
Q 1159 1113 1420 752 
Q 1681 391 2138 391 
Q 2594 391 2855 752 
Q 3116 1113 3116 1747 
z
" transform="scale(0.015625)"/>
     <path id="DejaVuSans-79" d="M 2059 -325 
Q 1816 -950 1584 -1140 
Q 1353 -1331 966 -1331 
L 506 -1331 
L 506 -850 
L 844 -850 
Q 1081 -850 1212 -737 
Q 1344 -625 1503 -206 
L 1606 56 
L 191 3500 
L 800 3500 
L 1894 763 
L 2988 3500 
L 3597 3500 
L 2059 -325 
z
" transform="scale(0.015625)"/>
     <path id="DejaVuSans-f3" d="M 1959 3097 
Q 1497 3097 1228 2736 
Q 959 2375 959 1747 
Q 959 1119 1226 758 
Q 1494 397 1959 397 
Q 2419 397 2687 759 
Q 2956 1122 2956 1747 
Q 2956 2369 2687 2733 
Q 2419 3097 1959 3097 
z
M 1959 3584 
Q 2709 3584 3137 3096 
Q 3566 2609 3566 1747 
Q 3566 888 3137 398 
Q 2709 -91 1959 -91 
Q 1206 -91 779 398 
Q 353 888 353 1747 
Q 353 2609 779 3096 
Q 1206 3584 1959 3584 
z
M 2394 5119 
L 3016 5119 
L 1998 3944 
L 1519 3944 
L 2394 5119 
z
" transform="scale(0.015625)"/>
    </defs>
    <use xlink:href="#DejaVuSans-46"/>
    <use xlink:href="#DejaVuSans-75" transform="translate(52.019531 0)"/>
    <use xlink:href="#DejaVuSans-65" transform="translate(115.398438 0)"/>
    <use xlink:href="#DejaVuSans-6e" transform="translate(176.921875 0)"/>
    <use xlink:href="#DejaVuSans-74" transform="translate(240.300781 0)"/>
    <use xlink:href="#DejaVuSans-65" transform="translate(279.509766 0)"/>
    <use xlink:href="#DejaVuSans-3a" transform="translate(341.033203 0)"/>
    <use xlink:href="#DejaVuSans-20" transform="translate(374.724609 0)"/>
    <use xlink:href="#DejaVuSans-54" transform="translate(406.511719 0)"/>
    <use xlink:href="#DejaVuSans-61" transform="translate(451.095703 0)"/>
    <use xlink:href="#DejaVuSans-62" transform="translate(512.375 0)"/>
    <use xlink:href="#DejaVuSans-6c" transform="translate(575.851562 0)"/>
    <use xlink:href="#DejaVuSans-61" transform="translate(603.634766 0)"/>
    <use xlink:href="#DejaVuSans-20" transform="translate(664.914062 0)"/>
    <use xlink:href="#DejaVuSans-64" transform="translate(696.701172 0)"/>
    <use xlink:href="#DejaVuSans-65" transform="translate(760.177734 0)"/>
    <use xlink:href="#DejaVuSans-20" transform="translate(821.701172 0)"/>
    <use xlink:href="#DejaVuSans-70" transform="translate(853.488281 0)"/>
    <use xlink:href="#DejaVuSans-72" transform="translate(916.964844 0)"/>
    <use xlink:href="#DejaVuSans-6f" transform="translate(955.828125 0)"/>
    <use xlink:href="#DejaVuSans-79" transform="translate(1017.009766 0)"/>
    <use xlink:href="#DejaVuSans-65" transform="translate(1076.189453 0)"/>
    <use xlink:href="#DejaVuSans-63" transform="translate(1137.712891 0)"/>
    <use xlink:href="#DejaVuSans-63" transform="translate(1192.693359 0)"/>
    <use xlink:href="#DejaVuSans-69" transform="translate(1247.673828 0)"/>
    <use xlink:href="#DejaVuSans-f3" transform="translate(1275.457031 0)"/>
    <use xlink:href="#DejaVuSans-6e" transform="translate(1336.638672 0)"/>
    <use xlink:href="#DejaVuSans-20" transform="translate(1400.017578 0)"/>
    <use xlink:href="#DejaVuSans-61" transform="translate(1431.804688 0)"/>
    <use xlink:href="#DejaVuSans-20" transform="translate(1493.083984 0)"/>
    <use xlink:href="#DejaVuSans-35" transform="translate(1524.871094 0)"/>
    <use xlink:href="#DejaVuSans-20" transform="translate(1588.494141 0)"/>
    <use xlink:href="#DejaVuSans-61" transform="translate(1620.28125 0)"/>
    <use xlink:href="#DejaVuSans-f1" transform="translate(1681.560547 0)"/>
    <use xlink:href="#DejaVuSans-6f" transform="translate(1744.939453 0)"/>
    <use xlink:href="#DejaVuSans-73" transform="translate(1806.121094 0)"/>
    <use xlink:href="#DejaVuSans-20" transform="translate(1858.220703 0)"/>
    <use xlink:href="#DejaVuSans-28" transform="translate(1890.007812 0)"/>
    <use xlink:href="#DejaVuSans-61" transform="translate(1929.021484 0)"/>
    <use xlink:href="#DejaVuSans-68" transform="translate(1990.300781 0)"/>
    <use xlink:href="#DejaVuSans-6f" transform="translate(2053.679688 0)"/>
    <use xlink:href="#DejaVuSans-72" transform="translate(2114.861328 0)"/>
    <use xlink:href="#DejaVuSans-72" transform="translate(2154.224609 0)"/>
    <use xlink:href="#DejaVuSans-6f" transform="translate(2193.087891 0)"/>
    <use xlink:href="#DejaVuSans-73" transform="translate(2254.269531 0)"/>
    <use xlink:href="#DejaVuSans-20" transform="translate(2306.369141 0)"/>
    <use xlink:href="#DejaVuSans-61" transform="translate(2338.15625 0)"/>
    <use xlink:href="#DejaVuSans-6e" transform="translate(2399.435547 0)"/>
    <use xlink:href="#DejaVuSans-75" transform="translate(2462.814453 0)"/>
    <use xlink:href="#DejaVuSans-61" transform="translate(2526.193359 0)"/>
    <use xlink:href="#DejaVuSans-6c" transform="translate(2587.472656 0)"/>
    <use xlink:href="#DejaVuSans-65" transform="translate(2615.255859 0)"/>
    <use xlink:href="#DejaVuSans-73" transform="translate(2676.779297 0)"/>
    <use xlink:href="#DejaVuSans-20" transform="translate(2728.878906 0)"/>
    <use xlink:href="#DejaVuSans-65" transform="translate(2760.666016 0)"/>
    <use xlink:href="#DejaVuSans-6e" transform="translate(2822.189453 0)"/>
    <use xlink:href="#DejaVuSans-20" transform="translate(2885.568359 0)"/>
    <use xlink:href="#DejaVuSans-55" transform="translate(2917.355469 0)"/>
    <use xlink:href="#DejaVuSans-53" transform="translate(2990.548828 0)"/>
    <use xlink:href="#DejaVuSans-44" transform="translate(3054.025391 0)"/>
    <use xlink:href="#DejaVuSans-29" transform="translate(3131.027344 0)"/>
    <use xlink:href="#DejaVuSans-2e" transform="translate(3170.041016 0)"/>
   </g>
  </g>
 </g>
 <defs>
  <clipPath id="p7cfdbfccfe">
   <rect x="38.99" y="28.318125" width="598.93" height="344.92"/>
  </clipPath>
 </defs>
</svg>
